<?xml version="1.0" encoding="UTF-8" standalone="no"?>
<!DOCTYPE svg PUBLIC "-//W3C//DTD SVG 1.1//EN" "http://www.w3.org/Graphics/SVG/1.1/DTD/svg11.dtd">
<svg width="100%" height="100%" viewBox="0 0 4876 2208" version="1.1" xmlns="http://www.w3.org/2000/svg" xmlns:xlink="http://www.w3.org/1999/xlink" xml:space="preserve" xmlns:serif="http://www.serif.com/" style="fill-rule:evenodd;clip-rule:evenodd;stroke-linejoin:round;stroke-miterlimit:2;">
    <g transform="matrix(1,0,0,1,-19562.2,-1146.14)">
        <g transform="matrix(4.16667,0,0,4.16667,18000,0)">
            <g transform="matrix(1,0,0,1,559.442,727.446)">
                <path d="M0,-256.079L-123.788,-256.079L-124.014,-256.077L-124.242,-256.07L-124.471,-256.058L-124.701,-256.04L-124.933,-256.018L-125.166,-255.991L-125.399,-255.958L-125.634,-255.92L-125.869,-255.877L-126.104,-255.828L-126.34,-255.773L-126.576,-255.713L-126.812,-255.647L-127.047,-255.576L-127.282,-255.498L-127.516,-255.415L-127.749,-255.327L-127.98,-255.232L-128.211,-255.132L-128.44,-255.026L-128.667,-254.914L-128.893,-254.797L-129.115,-254.674L-129.336,-254.545L-129.554,-254.412L-129.769,-254.272L-129.981,-254.127L-130.19,-253.977L-130.396,-253.822L-130.598,-253.662L-130.795,-253.497L-130.99,-253.328L-131.18,-253.154L-131.366,-252.975L-131.547,-252.792L-131.724,-252.605L-131.896,-252.414L-132.064,-252.219L-132.226,-252.021L-132.383,-251.819L-132.536,-251.614L-132.683,-251.406L-132.824,-251.195L-132.96,-250.982L-133.091,-250.766L-133.216,-250.548L-133.336,-250.329L-133.45,-250.106L-133.559,-249.883L-133.661,-249.659L-133.758,-249.433L-133.85,-249.205L-133.936,-248.978L-134.016,-248.75L-134.091,-248.521L-134.16,-248.292L-134.224,-248.063L-134.282,-247.835L-134.335,-247.606L-134.383,-247.379L-134.426,-247.151L-134.463,-246.925L-134.496,-246.7L-134.523,-246.475L-138.351,-208.008L-138.362,-207.871L-138.371,-207.733L-138.375,-207.595L-138.377,-207.455L-138.375,-207.316L-138.369,-207.176L-138.359,-207.035L-138.346,-206.894L-138.329,-206.754L-138.308,-206.614L-138.284,-206.474L-138.255,-206.334L-138.224,-206.195L-138.188,-206.057L-138.149,-205.919L-138.106,-205.783L-138.059,-205.647L-138.009,-205.514L-137.956,-205.381L-137.898,-205.25L-137.838,-205.121L-137.774,-204.994L-137.708,-204.869L-137.638,-204.746L-137.565,-204.624L-137.489,-204.506L-137.411,-204.39L-137.329,-204.276L-137.246,-204.165L-137.159,-204.057L-137.071,-203.951L-136.98,-203.848L-136.886,-203.747L-136.79,-203.649L-136.69,-203.552L-136.588,-203.458L-136.483,-203.366L-136.375,-203.276L-136.265,-203.189L-136.152,-203.104L-136.036,-203.022L-135.918,-202.944L-135.798,-202.868L-135.675,-202.795L-135.551,-202.725L-135.424,-202.659L-135.296,-202.596L-135.166,-202.536L-135.035,-202.48L-134.902,-202.427L-134.768,-202.378L-134.632,-202.332L-134.496,-202.29L-134.359,-202.252L-134.222,-202.218L-134.083,-202.187L-133.945,-202.16L-133.806,-202.136L-133.667,-202.117L-133.528,-202.1L-133.39,-202.088L-133.251,-202.079L-133.114,-202.074L-132.977,-202.072L9.188,-202.072L9.326,-202.074L9.463,-202.079L9.602,-202.088L9.74,-202.1L9.879,-202.117L10.018,-202.136L10.157,-202.16L10.295,-202.187L10.434,-202.218L10.571,-202.252L10.708,-202.29L10.844,-202.332L10.979,-202.378L11.114,-202.427L11.247,-202.48L11.378,-202.536L11.508,-202.596L11.636,-202.659L11.763,-202.725L11.887,-202.795L12.01,-202.868L12.13,-202.944L12.248,-203.022L12.364,-203.104L12.477,-203.189L12.587,-203.276L12.695,-203.366L12.8,-203.458L12.903,-203.552L13.002,-203.649L13.099,-203.747L13.192,-203.848L13.283,-203.951L13.371,-204.057L13.458,-204.165L13.542,-204.276L13.623,-204.39L13.701,-204.506L13.777,-204.624L13.85,-204.746L13.92,-204.869L13.986,-204.994L14.05,-205.121L14.11,-205.25L14.167,-205.381L14.221,-205.514L14.271,-205.647L14.318,-205.783L14.361,-205.919L14.4,-206.057L14.436,-206.195L14.468,-206.334L14.496,-206.474L14.52,-206.614L14.541,-206.754L14.558,-206.894L14.571,-207.035L14.581,-207.176L14.587,-207.316L14.589,-207.455L14.587,-207.595L14.583,-207.733L14.574,-207.871L14.563,-208.008L10.735,-246.475L10.708,-246.7L10.675,-246.925L10.638,-247.151L10.595,-247.379L10.547,-247.606L10.494,-247.835L10.436,-248.063L10.372,-248.292L10.303,-248.521L10.228,-248.75L10.148,-248.978L10.062,-249.205L9.97,-249.433L9.873,-249.659L9.771,-249.883L9.662,-250.106L9.548,-250.329L9.428,-250.548L9.303,-250.766L9.172,-250.982L9.036,-251.195L8.895,-251.406L8.748,-251.614L8.595,-251.819L8.438,-252.021L8.276,-252.219L8.108,-252.414L7.936,-252.605L7.759,-252.792L7.578,-252.975L7.392,-253.154L7.202,-253.328L7.008,-253.497L6.81,-253.662L6.607,-253.822L6.402,-253.977L6.193,-254.127L5.981,-254.272L5.766,-254.412L5.548,-254.545L5.327,-254.674L5.104,-254.797L4.879,-254.914L4.652,-255.026L4.423,-255.132L4.192,-255.232L3.961,-255.327L3.728,-255.415L3.494,-255.498L3.259,-255.576L3.024,-255.647L2.788,-255.713L2.552,-255.773L2.316,-255.828L2.081,-255.877L1.846,-255.92L1.611,-255.958L1.378,-255.991L1.145,-256.018L0.913,-256.04L0.683,-256.058L0.454,-256.07L0.226,-256.077L0,-256.079ZM-129.507,-29.269L-150.171,-29.269L-150.308,-29.271L-150.446,-29.277L-150.584,-29.286L-150.723,-29.297L-150.862,-29.314L-151,-29.333L-151.14,-29.357L-151.278,-29.384L-151.416,-29.414L-151.554,-29.45L-151.691,-29.488L-151.827,-29.53L-151.962,-29.575L-152.097,-29.624L-152.229,-29.677L-152.361,-29.733L-152.491,-29.793L-152.619,-29.856L-152.746,-29.922L-152.87,-29.993L-152.992,-30.065L-153.113,-30.141L-153.231,-30.22L-153.346,-30.301L-153.459,-30.386L-153.57,-30.473L-153.678,-30.563L-153.783,-30.655L-153.885,-30.749L-153.985,-30.846L-154.081,-30.945L-154.174,-31.045L-154.265,-31.148L-154.354,-31.253L-154.44,-31.362L-154.524,-31.473L-154.605,-31.587L-154.684,-31.704L-154.76,-31.822L-154.833,-31.943L-154.902,-32.066L-154.969,-32.191L-155.033,-32.319L-155.093,-32.448L-155.15,-32.579L-155.204,-32.71L-155.254,-32.844L-155.3,-32.98L-155.343,-33.117L-155.383,-33.253L-155.418,-33.392L-155.45,-33.531L-155.479,-33.67L-155.503,-33.811L-155.523,-33.952L-155.541,-34.092L-155.554,-34.233L-155.563,-34.372L-155.569,-34.513L-155.572,-34.653L-155.57,-34.792L-155.565,-34.93L-155.557,-35.068L-155.545,-35.204L-142.059,-170.738L-142.034,-170.963L-142.004,-171.191L-141.969,-171.419L-141.929,-171.649L-141.883,-171.878L-141.833,-172.109L-141.776,-172.34L-141.714,-172.572L-141.647,-172.803L-141.574,-173.034L-141.496,-173.265L-141.412,-173.495L-141.321,-173.725L-141.226,-173.954L-141.124,-174.181L-141.017,-174.407L-140.904,-174.631L-140.786,-174.855L-140.661,-175.076L-140.531,-175.294L-140.396,-175.51L-140.254,-175.724L-140.108,-175.935L-139.956,-176.143L-139.799,-176.348L-139.637,-176.549L-139.469,-176.746L-139.297,-176.941L-139.12,-177.13L-138.937,-177.317L-138.751,-177.497L-138.561,-177.675L-138.366,-177.847L-138.167,-178.015L-137.964,-178.177L-137.757,-178.334L-137.547,-178.487L-137.334,-178.634L-137.117,-178.776L-136.898,-178.912L-136.676,-179.042L-136.452,-179.167L-136.225,-179.287L-135.997,-179.4L-135.766,-179.508L-135.534,-179.61L-135.3,-179.705L-135.065,-179.795L-134.83,-179.88L-134.593,-179.958L-134.356,-180.031L-134.119,-180.098L-133.881,-180.159L-133.644,-180.214L-133.407,-180.264L-133.17,-180.308L-132.934,-180.347L-132.698,-180.38L-132.463,-180.408L-132.23,-180.43L-131.998,-180.448L-131.767,-180.459L-131.538,-180.467L-131.311,-180.469L7.522,-180.469L7.75,-180.467L7.979,-180.459L8.21,-180.448L8.442,-180.43L8.675,-180.408L8.91,-180.38L9.146,-180.347L9.382,-180.308L9.619,-180.264L9.856,-180.214L10.093,-180.159L10.331,-180.098L10.568,-180.031L10.805,-179.958L11.042,-179.88L11.277,-179.795L11.512,-179.705L11.746,-179.61L11.978,-179.508L12.208,-179.4L12.437,-179.287L12.664,-179.167L12.888,-179.042L13.11,-178.912L13.33,-178.776L13.546,-178.634L13.759,-178.487L13.969,-178.334L14.176,-178.177L14.378,-178.015L14.578,-177.847L14.772,-177.675L14.963,-177.497L15.149,-177.317L15.332,-177.13L15.509,-176.941L15.681,-176.746L15.849,-176.549L16.011,-176.348L16.168,-176.143L16.32,-175.935L16.466,-175.724L16.607,-175.51L16.743,-175.294L16.873,-175.076L16.998,-174.855L17.116,-174.631L17.229,-174.407L17.336,-174.181L17.437,-173.954L17.533,-173.725L17.624,-173.495L17.708,-173.265L17.786,-173.034L17.859,-172.803L17.927,-172.572L17.988,-172.34L18.044,-172.109L18.096,-171.878L18.141,-171.649L18.181,-171.419L18.216,-171.191L18.246,-170.963L18.271,-170.738L31.757,-35.204L31.769,-35.068L31.777,-34.93L31.782,-34.792L31.784,-34.653L31.781,-34.513L31.775,-34.372L31.766,-34.233L31.752,-34.092L31.735,-33.952L31.715,-33.811L31.69,-33.67L31.662,-33.531L31.63,-33.392L31.595,-33.253L31.555,-33.117L31.512,-32.98L31.466,-32.844L31.416,-32.71L31.362,-32.579L31.305,-32.448L31.245,-32.319L31.181,-32.191L31.114,-32.066L31.044,-31.943L30.972,-31.822L30.896,-31.704L30.817,-31.587L30.736,-31.473L30.652,-31.362L30.566,-31.253L30.477,-31.148L30.386,-31.045L30.293,-30.945L30.197,-30.846L30.097,-30.749L29.995,-30.655L29.89,-30.563L29.782,-30.473L29.671,-30.386L29.558,-30.301L29.443,-30.22L29.325,-30.141L29.205,-30.065L29.082,-29.993L28.958,-29.922L28.831,-29.856L28.703,-29.793L28.573,-29.733L28.441,-29.677L28.309,-29.624L28.174,-29.575L28.039,-29.53L27.903,-29.488L27.766,-29.45L27.628,-29.414L27.49,-29.384L27.352,-29.357L27.212,-29.333L27.074,-29.314L26.935,-29.297L26.796,-29.286L26.658,-29.277L26.52,-29.271L26.383,-29.269L5.719,-29.269L-129.507,-29.269ZM31.913,-287.497L30.199,-308.818L30.146,-309.389L30.08,-309.963L30.001,-310.541L29.909,-311.121L29.804,-311.703L29.685,-312.287L29.551,-312.872L29.404,-313.459L29.243,-314.045L29.067,-314.632L28.877,-315.218L28.672,-315.803L28.453,-316.386L28.219,-316.967L27.97,-317.546L27.706,-318.121L27.428,-318.692L27.134,-319.26L26.827,-319.822L26.504,-320.379L26.168,-320.93L25.817,-321.475L25.452,-322.013L25.073,-322.542L24.681,-323.064L24.275,-323.578L23.856,-324.082L23.424,-324.577L22.98,-325.061L22.523,-325.535L22.056,-325.998L21.576,-326.45L21.086,-326.889L20.585,-327.317L20.075,-327.731L19.555,-328.133L19.025,-328.522L18.488,-328.897L17.942,-329.258L17.389,-329.605L16.829,-329.938L16.263,-330.257L15.69,-330.561L15.113,-330.85L14.531,-331.124L13.944,-331.384L13.354,-331.628L12.762,-331.857L12.167,-332.072L11.569,-332.271L10.97,-332.455L10.371,-332.625L9.771,-332.78L9.17,-332.92L8.571,-333.046L7.973,-333.158L7.377,-333.255L6.782,-333.338L6.19,-333.408L5.601,-333.464L5.016,-333.507L4.434,-333.537L3.855,-333.555L3.282,-333.559L-127.07,-333.559L-127.644,-333.555L-128.222,-333.537L-128.804,-333.507L-129.389,-333.464L-129.979,-333.408L-130.57,-333.338L-131.165,-333.255L-131.761,-333.158L-132.359,-333.046L-132.958,-332.92L-133.559,-332.78L-134.159,-332.625L-134.758,-332.455L-135.357,-332.271L-135.954,-332.072L-136.55,-331.857L-137.143,-331.628L-137.732,-331.384L-138.319,-331.124L-138.901,-330.85L-139.479,-330.561L-140.051,-330.257L-140.617,-329.938L-141.177,-329.605L-141.73,-329.258L-142.276,-328.897L-142.813,-328.522L-143.343,-328.133L-143.863,-327.731L-144.374,-327.317L-144.874,-326.889L-145.364,-326.45L-145.844,-325.998L-146.312,-325.535L-146.768,-325.061L-147.212,-324.577L-147.644,-324.082L-148.063,-323.578L-148.469,-323.064L-148.861,-322.542L-149.24,-322.013L-149.605,-321.475L-149.956,-320.93L-150.292,-320.379L-150.615,-319.822L-150.922,-319.26L-151.216,-318.692L-151.494,-318.121L-151.758,-317.546L-152.006,-316.967L-152.241,-316.386L-152.46,-315.803L-152.665,-315.218L-152.855,-314.632L-153.031,-314.045L-153.192,-313.459L-153.339,-312.872L-153.473,-312.287L-153.592,-311.703L-153.697,-311.121L-153.79,-310.541L-153.868,-309.963L-153.934,-309.389L-153.987,-308.818L-155.701,-287.497L-160.031,-287.498L-161.379,-287.498L-161.379,-279.397L-156.406,-279.397L-184.49,71.649L-184.499,71.785L-184.505,71.921L-184.507,72.058L-184.506,72.195L-184.501,72.334L-184.493,72.472L-184.481,72.611L-184.465,72.75L-184.446,72.888L-184.424,73.026L-184.397,73.165L-184.367,73.302L-184.333,73.439L-184.296,73.575L-184.255,73.711L-184.211,73.844L-184.163,73.977L-184.112,74.109L-184.057,74.239L-183.999,74.368L-183.937,74.494L-183.873,74.619L-183.806,74.742L-183.735,74.863L-183.662,74.981L-183.585,75.098L-183.506,75.212L-183.425,75.324L-183.341,75.432L-183.254,75.539L-183.166,75.642L-183.075,75.743L-182.981,75.841L-182.885,75.938L-182.786,76.033L-182.684,76.126L-182.58,76.215L-182.472,76.303L-182.362,76.389L-182.25,76.471L-182.135,76.551L-182.018,76.629L-181.898,76.703L-181.777,76.774L-181.653,76.842L-181.528,76.907L-181.401,76.968L-181.272,77.027L-181.142,77.082L-181.011,77.133L-180.878,77.181L-180.744,77.226L-180.609,77.267L-180.474,77.304L-180.338,77.338L-180.201,77.369L-180.064,77.395L-179.927,77.418L-179.79,77.437L-179.652,77.453L-179.515,77.465L-179.378,77.473L-179.242,77.479L-179.106,77.48L-171.647,77.48L-171.534,77.479L-171.42,77.476L-171.306,77.469L-171.191,77.462L-171.075,77.45L-170.958,77.436L-170.842,77.421L-170.724,77.401L-170.607,77.379L-170.489,77.355L-170.371,77.328L-170.253,77.297L-170.135,77.264L-170.018,77.229L-169.9,77.19L-169.784,77.149L-169.667,77.104L-169.551,77.057L-169.436,77.006L-169.321,76.954L-169.208,76.898L-169.095,76.839L-168.984,76.778L-168.874,76.713L-168.765,76.647L-168.657,76.577L-168.551,76.504L-168.446,76.429L-168.344,76.352L-168.243,76.272L-168.144,76.19L-168.046,76.105L-167.951,76.017L-167.858,75.928L-167.768,75.837L-167.679,75.744L-167.593,75.648L-167.509,75.55L-167.428,75.451L-167.35,75.35L-167.273,75.248L-167.2,75.144L-167.129,75.039L-167.061,74.932L-166.996,74.824L-166.933,74.715L-166.874,74.605L-166.816,74.494L-166.762,74.382L-166.711,74.27L-166.662,74.157L-166.616,74.044L-166.573,73.93L-166.533,73.816L-166.496,73.702L-166.461,73.588L-166.429,73.472L-166.4,73.358L-166.374,73.244L-166.35,73.13L-166.329,73.016L-166.31,72.903L-166.293,72.791L-166.28,72.678L-159.253,2.065L-159.229,1.839L-159.199,1.612L-159.164,1.383L-159.124,1.154L-159.078,0.924L-159.027,0.694L-158.971,0.463L-158.909,0.231L-158.842,0L-158.769,-0.231L-158.69,-0.462L-158.606,-0.692L-158.516,-0.922L-158.42,-1.151L-158.319,-1.378L-158.211,-1.604L-158.099,-1.829L-157.98,-2.052L-157.855,-2.273L-157.726,-2.492L-157.59,-2.707L-157.449,-2.921L-157.303,-3.132L-157.15,-3.34L-156.994,-3.545L-156.831,-3.746L-156.664,-3.944L-156.491,-4.138L-156.314,-4.328L-156.132,-4.514L-155.946,-4.695L-155.755,-4.872L-155.56,-5.044L-155.361,-5.212L-155.158,-5.374L-154.952,-5.532L-154.742,-5.684L-154.528,-5.831L-154.312,-5.973L-154.093,-6.109L-153.871,-6.24L-153.646,-6.365L-153.419,-6.484L-153.191,-6.597L-152.96,-6.705L-152.729,-6.807L-152.495,-6.903L-152.26,-6.993L-152.024,-7.078L-151.788,-7.156L-151.551,-7.228L-151.313,-7.295L-151.076,-7.356L-150.838,-7.412L-150.601,-7.461L-150.364,-7.505L-150.128,-7.544L-149.893,-7.578L-149.658,-7.605L-149.425,-7.627L-149.192,-7.645L-148.962,-7.657L-148.733,-7.664L-148.505,-7.666L24.717,-7.666L24.945,-7.664L25.174,-7.657L25.405,-7.645L25.637,-7.627L25.87,-7.605L26.104,-7.578L26.34,-7.544L26.576,-7.505L26.813,-7.461L27.05,-7.412L27.288,-7.356L27.525,-7.295L27.763,-7.228L28,-7.156L28.236,-7.078L28.472,-6.993L28.707,-6.903L28.94,-6.807L29.172,-6.705L29.403,-6.597L29.632,-6.484L29.858,-6.365L30.083,-6.24L30.305,-6.109L30.524,-5.973L30.74,-5.831L30.954,-5.684L31.164,-5.532L31.37,-5.374L31.573,-5.212L31.772,-5.044L31.967,-4.872L32.158,-4.695L32.344,-4.514L32.526,-4.328L32.703,-4.138L32.875,-3.944L33.043,-3.746L33.206,-3.545L33.363,-3.34L33.515,-3.132L33.661,-2.921L33.802,-2.707L33.938,-2.492L34.067,-2.273L34.192,-2.052L34.311,-1.829L34.423,-1.604L34.531,-1.378L34.632,-1.151L34.728,-0.922L34.818,-0.692L34.902,-0.462L34.981,-0.231L35.054,0L35.121,0.231L35.183,0.463L35.239,0.694L35.29,0.924L35.335,1.154L35.376,1.383L35.411,1.612L35.441,1.839L35.466,2.065L42.492,72.678L42.505,72.791L42.522,72.903L42.541,73.016L42.562,73.13L42.585,73.244L42.612,73.358L42.641,73.472L42.673,73.588L42.708,73.702L42.745,73.816L42.786,73.93L42.829,74.044L42.874,74.157L42.923,74.27L42.974,74.382L43.028,74.494L43.085,74.605L43.145,74.715L43.208,74.824L43.273,74.932L43.341,75.039L43.412,75.144L43.485,75.248L43.562,75.35L43.64,75.451L43.722,75.55L43.805,75.648L43.891,75.744L43.979,75.837L44.07,75.928L44.163,76.017L44.258,76.105L44.355,76.19L44.455,76.272L44.556,76.352L44.658,76.429L44.763,76.504L44.869,76.577L44.977,76.647L45.085,76.713L45.196,76.778L45.307,76.839L45.42,76.898L45.533,76.954L45.648,77.006L45.763,77.057L45.879,77.104L45.996,77.149L46.112,77.19L46.23,77.229L46.348,77.264L46.465,77.297L46.583,77.328L46.701,77.355L46.819,77.379L46.937,77.401L47.054,77.421L47.17,77.436L47.287,77.45L47.403,77.462L47.518,77.469L47.632,77.476L47.747,77.479L47.859,77.48L55.318,77.48L55.454,77.479L55.59,77.473L55.727,77.465L55.864,77.453L56.001,77.437L56.139,77.418L56.276,77.395L56.413,77.369L56.55,77.338L56.686,77.304L56.821,77.267L56.956,77.226L57.09,77.181L57.223,77.133L57.354,77.082L57.484,77.027L57.613,76.968L57.74,76.907L57.865,76.842L57.989,76.774L58.11,76.703L58.23,76.629L58.347,76.551L58.462,76.471L58.574,76.389L58.684,76.303L58.792,76.215L58.896,76.126L58.998,76.033L59.097,75.938L59.193,75.841L59.287,75.743L59.377,75.642L59.466,75.539L59.553,75.432L59.637,75.324L59.718,75.212L59.797,75.098L59.874,74.981L59.947,74.863L60.018,74.742L60.085,74.619L60.149,74.494L60.211,74.368L60.269,74.239L60.324,74.109L60.375,73.977L60.423,73.844L60.467,73.711L60.508,73.575L60.545,73.439L60.579,73.302L60.609,73.165L60.636,73.026L60.658,72.888L60.678,72.75L60.693,72.611L60.705,72.472L60.713,72.334L60.718,72.195L60.719,72.058L60.717,71.921L60.711,71.785L60.702,71.649L32.618,-279.396L37.463,-279.397L37.463,-287.498L31.913,-287.497Z" style="fill:white;"/>
            </g>
        </g>
        <g transform="matrix(4.16667,0,0,4.16667,18000,0)">
            <g transform="matrix(1,0,0,1,693.085,486.648)">
                <path d="M0,106.704L-0.214,106.725L-0.429,106.749L-0.645,106.778L-0.862,106.812L-1.079,106.85L-1.297,106.894L-1.515,106.942L-1.734,106.995L-1.952,107.053L-2.171,107.115L-2.389,107.183L-2.607,107.255L-2.824,107.333L-3.041,107.415L-3.256,107.503L-3.471,107.596L-3.684,107.693L-3.896,107.795L-4.106,107.903L-4.315,108.016L-4.522,108.133L-4.727,108.255L-4.929,108.382L-5.129,108.514L-5.326,108.65L-5.521,108.791L-5.713,108.936L-5.901,109.087L-6.087,109.241L-6.269,109.399L-6.448,109.562L-6.623,109.728L-6.794,109.899L-6.961,110.073L-7.125,110.252L-7.284,110.433L-7.438,110.617L-7.589,110.806L-7.735,110.996L-7.877,111.19L-8.014,111.387L-8.146,111.585L-8.274,111.787L-8.396,111.99L-8.515,112.196L-8.628,112.403L-8.736,112.612L-8.839,112.823L-8.937,113.035L-9.03,113.249L-9.119,113.463L-9.202,113.678L-9.28,113.893L-9.354,114.11L-9.422,114.327L-9.485,114.544L-9.543,114.761L-9.597,114.977L-9.646,115.194L-9.69,115.411L-9.73,115.627L-9.765,115.842L-9.795,116.056L-9.822,116.269L-19.761,205.361L-19.788,205.636L-19.808,205.913L-19.821,206.192L-19.827,206.473L-19.826,206.754L-19.817,207.036L-19.801,207.319L-19.777,207.602L-19.746,207.886L-19.707,208.17L-19.661,208.452L-19.606,208.734L-19.545,209.015L-19.476,209.294L-19.399,209.572L-19.315,209.848L-19.224,210.121L-19.125,210.392L-19.019,210.659L-18.907,210.924L-18.787,211.184L-18.661,211.441L-18.528,211.695L-18.389,211.944L-18.244,212.188L-18.093,212.429L-17.937,212.664L-17.774,212.894L-17.607,213.119L-17.435,213.339L-17.258,213.553L-17.076,213.761L-16.89,213.964L-16.696,214.164L-16.498,214.359L-16.292,214.551L-16.082,214.737L-15.865,214.919L-15.644,215.096L-15.417,215.267L-15.185,215.433L-14.947,215.593L-14.706,215.747L-14.459,215.894L-14.209,216.036L-13.955,216.17L-13.697,216.299L-13.436,216.42L-13.171,216.533L-12.903,216.641L-12.633,216.74L-12.361,216.833L-12.087,216.918L-11.811,216.995L-11.534,217.065L-11.255,217.128L-10.977,217.183L-10.697,217.23L-10.417,217.27L-10.138,217.303L-9.858,217.328L-9.58,217.346L-9.303,217.356L-9.026,217.36L139.613,217.36L139.89,217.356L140.167,217.346L140.446,217.328L140.725,217.303L141.004,217.27L141.284,217.23L141.564,217.183L141.843,217.128L142.121,217.065L142.398,216.995L142.674,216.918L142.948,216.833L143.221,216.74L143.491,216.641L143.758,216.533L144.022,216.42L144.284,216.299L144.542,216.17L144.796,216.036L145.047,215.894L145.293,215.747L145.535,215.593L145.771,215.433L146.004,215.267L146.231,215.096L146.453,214.919L146.669,214.737L146.88,214.551L147.084,214.359L147.284,214.164L147.477,213.964L147.664,213.761L147.845,213.553L148.022,213.339L148.194,213.119L148.362,212.894L148.524,212.664L148.681,212.429L148.832,212.188L148.977,211.944L149.116,211.695L149.248,211.441L149.375,211.184L149.494,210.924L149.606,210.659L149.712,210.392L149.811,210.121L149.902,209.848L149.986,209.572L150.063,209.294L150.132,209.015L150.194,208.734L150.248,208.452L150.294,208.17L150.333,207.886L150.364,207.602L150.388,207.319L150.404,207.036L150.413,206.754L150.415,206.473L150.409,206.192L150.396,205.913L150.375,205.636L150.348,205.361L140.409,116.269L140.383,116.056L140.353,115.842L140.317,115.627L140.278,115.411L140.234,115.194L140.185,114.977L140.131,114.761L140.072,114.544L140.009,114.327L139.94,114.11L139.867,113.893L139.789,113.678L139.706,113.463L139.618,113.249L139.524,113.035L139.426,112.823L139.323,112.612L139.215,112.403L139.102,112.196L138.984,111.99L138.861,111.787L138.733,111.585L138.601,111.387L138.464,111.19L138.323,110.996L138.177,110.806L138.026,110.617L137.871,110.433L137.712,110.252L137.548,110.073L137.381,109.899L137.21,109.728L137.035,109.562L136.856,109.399L136.674,109.241L136.489,109.087L136.3,108.936L136.108,108.791L135.914,108.65L135.716,108.514L135.516,108.382L135.314,108.255L135.109,108.133L134.902,108.016L134.694,107.903L134.483,107.795L134.271,107.693L134.058,107.596L133.843,107.503L133.628,107.415L133.411,107.333L133.194,107.255L132.976,107.183L132.758,107.115L132.54,107.053L132.321,106.995L132.103,106.942L131.884,106.894L131.667,106.85L131.449,106.812L131.232,106.778L131.016,106.749L130.801,106.725L130.587,106.704L0,106.704ZM164.651,83.348L164.651,75.247L159.089,75.248L138.031,-186.832L137.978,-187.403L137.912,-187.978L137.833,-188.555L137.741,-189.135L137.635,-189.717L137.516,-190.301L137.383,-190.887L137.236,-191.473L137.074,-192.06L136.898,-192.646L136.708,-193.232L136.503,-193.817L136.284,-194.4L136.05,-194.981L135.801,-195.56L135.538,-196.135L135.259,-196.707L134.966,-197.274L134.658,-197.836L134.336,-198.393L134,-198.944L133.648,-199.489L133.284,-200.026L132.905,-200.557L132.512,-201.079L132.106,-201.592L131.687,-202.096L131.255,-202.59L130.812,-203.075L130.355,-203.549L129.887,-204.012L129.408,-204.463L128.917,-204.903L128.417,-205.331L127.906,-205.746L127.386,-206.148L126.857,-206.536L126.319,-206.911L125.773,-207.273L125.221,-207.62L124.661,-207.953L124.094,-208.271L123.522,-208.575L122.944,-208.864L122.362,-209.138L121.776,-209.398L121.186,-209.642L120.593,-209.871L119.998,-210.086L119.4,-210.285L118.802,-210.469L118.202,-210.639L117.602,-210.794L117.002,-210.934L116.403,-211.06L115.805,-211.171L115.208,-211.269L114.614,-211.352L114.022,-211.422L113.433,-211.478L112.847,-211.521L112.265,-211.551L111.687,-211.569L111.113,-211.574L19.474,-211.574L18.9,-211.569L18.322,-211.551L17.74,-211.521L17.154,-211.478L16.565,-211.422L15.974,-211.352L15.379,-211.269L14.782,-211.171L14.185,-211.06L13.585,-210.934L12.985,-210.794L12.385,-210.639L11.786,-210.469L11.187,-210.285L10.589,-210.086L9.994,-209.871L9.401,-209.642L8.811,-209.398L8.225,-209.138L7.643,-208.864L7.065,-208.575L6.493,-208.271L5.927,-207.953L5.367,-207.62L4.813,-207.273L4.268,-206.911L3.73,-206.536L3.201,-206.148L2.681,-205.746L2.17,-205.331L1.67,-204.903L1.18,-204.463L0.7,-204.012L0.232,-203.549L-0.224,-203.075L-0.668,-202.59L-1.1,-202.096L-1.519,-201.592L-1.925,-201.079L-2.317,-200.557L-2.696,-200.026L-3.061,-199.489L-3.412,-198.944L-3.749,-198.393L-4.071,-197.836L-4.379,-197.274L-4.672,-196.707L-4.95,-196.135L-5.214,-195.56L-5.463,-194.981L-5.697,-194.4L-5.917,-193.817L-6.121,-193.232L-6.312,-192.646L-6.487,-192.06L-6.648,-191.473L-6.795,-190.887L-6.929,-190.301L-7.048,-189.717L-7.153,-189.135L-7.246,-188.555L-7.325,-187.978L-7.391,-187.403L-7.443,-186.832L-7.443,-186.077L-28.501,75.247L-32.84,75.247L-34.191,75.247L-34.191,83.348L-29.219,83.348L-47.547,312.447L-47.556,312.583L-47.562,312.719L-47.564,312.856L-47.563,312.993L-47.558,313.132L-47.55,313.27L-47.538,313.409L-47.522,313.548L-47.503,313.686L-47.48,313.824L-47.454,313.963L-47.424,314.1L-47.39,314.237L-47.353,314.373L-47.312,314.509L-47.268,314.642L-47.22,314.775L-47.168,314.907L-47.113,315.037L-47.056,315.166L-46.994,315.292L-46.93,315.417L-46.862,315.54L-46.792,315.661L-46.718,315.779L-46.642,315.896L-46.563,316.01L-46.481,316.122L-46.397,316.23L-46.311,316.337L-46.222,316.44L-46.131,316.541L-46.038,316.64L-45.942,316.736L-45.843,316.831L-45.741,316.924L-45.636,317.014L-45.529,317.101L-45.419,317.187L-45.307,317.269L-45.191,317.35L-45.074,317.427L-44.955,317.501L-44.833,317.572L-44.71,317.641L-44.585,317.705L-44.458,317.766L-44.329,317.825L-44.199,317.88L-44.067,317.932L-43.935,317.979L-43.801,318.024L-43.666,318.065L-43.531,318.102L-43.395,318.137L-43.258,318.167L-43.121,318.193L-42.983,318.216L-42.846,318.235L-42.709,318.251L-42.572,318.264L-42.435,318.271L-42.299,318.277L-42.163,318.278L-37.19,318.278L-37.078,318.277L-36.963,318.274L-36.849,318.267L-36.734,318.26L-36.618,318.248L-36.501,318.234L-36.385,318.219L-36.268,318.199L-36.15,318.178L-36.032,318.153L-35.914,318.126L-35.796,318.096L-35.679,318.062L-35.561,318.027L-35.443,317.988L-35.327,317.947L-35.21,317.902L-35.094,317.855L-34.979,317.805L-34.864,317.752L-34.751,317.696L-34.638,317.638L-34.527,317.576L-34.417,317.512L-34.308,317.445L-34.2,317.375L-34.094,317.303L-33.989,317.227L-33.887,317.15L-33.786,317.07L-33.687,316.988L-33.589,316.903L-33.494,316.815L-33.401,316.726L-33.311,316.635L-33.222,316.542L-33.136,316.446L-33.052,316.349L-32.971,316.249L-32.893,316.148L-32.816,316.046L-32.743,315.942L-32.672,315.837L-32.604,315.73L-32.539,315.622L-32.476,315.514L-32.417,315.403L-32.359,315.292L-32.305,315.181L-32.254,315.068L-32.205,314.955L-32.159,314.842L-32.116,314.728L-32.076,314.614L-32.039,314.5L-32.004,314.386L-31.972,314.27L-31.943,314.156L-31.917,314.042L-31.893,313.929L-31.872,313.814L-31.853,313.701L-31.836,313.589L-31.823,313.476L-24.581,248.566L-24.554,248.343L-24.521,248.117L-24.484,247.891L-24.441,247.664L-24.394,247.435L-24.341,247.207L-24.282,246.978L-24.219,246.75L-24.149,246.521L-24.075,246.292L-23.994,246.064L-23.908,245.837L-23.817,245.609L-23.72,245.384L-23.617,245.159L-23.508,244.935L-23.395,244.714L-23.275,244.494L-23.149,244.276L-23.019,244.06L-22.883,243.847L-22.741,243.636L-22.594,243.428L-22.442,243.224L-22.285,243.021L-22.122,242.823L-21.955,242.628L-21.783,242.437L-21.606,242.25L-21.424,242.067L-21.238,241.889L-21.048,241.715L-20.854,241.545L-20.656,241.38L-20.454,241.22L-20.249,241.064L-20.04,240.915L-19.828,240.77L-19.612,240.631L-19.395,240.497L-19.174,240.368L-18.951,240.245L-18.726,240.128L-18.499,240.016L-18.27,239.91L-18.039,239.809L-17.807,239.716L-17.574,239.627L-17.34,239.544L-17.105,239.467L-16.87,239.394L-16.635,239.329L-16.399,239.268L-16.163,239.215L-15.928,239.165L-15.692,239.122L-15.458,239.084L-15.224,239.052L-14.991,239.023L-14.76,239.002L-14.529,238.984L-14.3,238.973L-14.072,238.966L-13.847,238.963L144.434,238.963L144.66,238.966L144.887,238.973L145.116,238.984L145.347,239.002L145.579,239.023L145.812,239.052L146.045,239.084L146.28,239.122L146.515,239.165L146.75,239.215L146.986,239.268L147.222,239.329L147.458,239.394L147.693,239.467L147.927,239.544L148.162,239.627L148.395,239.716L148.626,239.809L148.857,239.91L149.086,240.016L149.313,240.128L149.538,240.245L149.761,240.368L149.981,240.497L150.2,240.631L150.415,240.77L150.627,240.915L150.836,241.064L151.042,241.22L151.243,241.38L151.441,241.545L151.636,241.715L151.826,241.889L152.012,242.067L152.193,242.25L152.37,242.437L152.542,242.628L152.709,242.823L152.872,243.021L153.029,243.224L153.182,243.428L153.328,243.636L153.47,243.847L153.606,244.06L153.737,244.276L153.862,244.494L153.981,244.714L154.096,244.935L154.204,245.159L154.307,245.384L154.404,245.609L154.496,245.837L154.582,246.064L154.662,246.292L154.737,246.521L154.806,246.75L154.87,246.978L154.928,247.207L154.981,247.435L155.029,247.664L155.071,247.891L155.109,248.117L155.141,248.343L155.168,248.566L162.41,313.476L162.424,313.589L162.44,313.701L162.459,313.814L162.48,313.929L162.504,314.042L162.53,314.156L162.56,314.27L162.591,314.386L162.626,314.5L162.664,314.614L162.704,314.728L162.747,314.842L162.792,314.955L162.841,315.068L162.893,315.181L162.947,315.292L163.004,315.403L163.063,315.514L163.126,315.622L163.191,315.73L163.26,315.837L163.331,315.942L163.404,316.046L163.48,316.148L163.559,316.249L163.64,316.349L163.724,316.446L163.81,316.542L163.898,316.635L163.989,316.726L164.082,316.815L164.177,316.903L164.274,316.988L164.373,317.07L164.474,317.15L164.577,317.227L164.681,317.303L164.787,317.375L164.895,317.445L165.004,317.512L165.114,317.576L165.226,317.638L165.338,317.696L165.452,317.752L165.566,317.805L165.681,317.855L165.797,317.902L165.914,317.947L166.031,317.988L166.148,318.027L166.266,318.062L166.384,318.096L166.501,318.126L166.619,318.153L166.737,318.178L166.854,318.199L166.972,318.219L167.089,318.234L167.205,318.248L167.321,318.26L167.437,318.267L167.551,318.274L167.665,318.277L167.778,318.278L172.75,318.278L172.886,318.277L173.022,318.271L173.159,318.264L173.296,318.251L173.434,318.235L173.571,318.216L173.708,318.193L173.845,318.167L173.982,318.137L174.118,318.102L174.253,318.065L174.388,318.024L174.522,317.979L174.655,317.932L174.786,317.88L174.917,317.825L175.045,317.766L175.172,317.705L175.297,317.641L175.421,317.572L175.542,317.501L175.662,317.427L175.779,317.35L175.894,317.269L176.006,317.187L176.116,317.101L176.224,317.014L176.328,316.924L176.43,316.831L176.529,316.736L176.625,316.64L176.719,316.541L176.81,316.44L176.898,316.337L176.984,316.23L177.068,316.122L177.15,316.01L177.229,315.896L177.305,315.779L177.379,315.661L177.449,315.54L177.517,315.417L177.582,315.292L177.643,315.166L177.701,315.037L177.755,314.907L177.807,314.775L177.854,314.642L177.899,314.509L177.94,314.373L177.978,314.237L178.011,314.1L178.041,313.963L178.067,313.824L178.09,313.686L178.109,313.548L178.125,313.409L178.137,313.27L178.145,313.132L178.15,312.993L178.151,312.856L178.149,312.719L178.143,312.583L178.134,312.447L159.806,83.349L164.651,83.348Z" style="fill:white;"/>
            </g>
        </g>
        <g transform="matrix(4.16667,0,0,4.16667,18000,0)">
            <g transform="matrix(1,0,0,1,1109.96,456.65)">
                <path d="M0,247.358L6.707,247.358L6.983,247.354L7.261,247.343L7.539,247.326L7.818,247.3L8.098,247.268L8.378,247.228L8.657,247.18L8.937,247.126L9.215,247.063L9.492,246.993L9.768,246.916L10.042,246.831L10.314,246.738L10.584,246.638L10.852,246.531L11.116,246.418L11.377,246.296L11.636,246.168L11.89,246.034L12.14,245.892L12.387,245.745L12.628,245.59L12.865,245.43L13.098,245.265L13.324,245.093L13.546,244.917L13.763,244.735L13.974,244.548L14.178,244.357L14.377,244.162L14.57,243.962L14.757,243.758L14.938,243.55L15.115,243.337L15.288,243.117L15.455,242.892L15.617,242.662L15.774,242.426L15.925,242.186L16.07,241.942L16.209,241.693L16.342,241.439L16.468,241.182L16.587,240.921L16.7,240.657L16.806,240.389L16.904,240.119L16.995,239.845L17.08,239.57L17.156,239.292L17.226,239.012L17.287,238.732L17.341,238.45L17.388,238.168L17.427,237.883L17.458,237.6L17.481,237.317L17.498,237.034L17.507,236.752L17.508,236.47L17.502,236.19L17.489,235.911L17.469,235.633L17.441,235.359L7.502,146.267L7.477,146.053L7.446,145.839L7.411,145.625L7.371,145.409L7.327,145.192L7.278,144.975L7.225,144.758L7.166,144.542L7.103,144.325L7.034,144.108L6.961,143.891L6.883,143.675L6.799,143.461L6.711,143.246L6.618,143.033L6.52,142.821L6.416,142.61L6.309,142.401L6.195,142.193L6.077,141.988L5.954,141.784L5.827,141.583L5.694,141.383L5.558,141.187L5.416,140.994L5.27,140.802L5.119,140.615L4.964,140.43L4.805,140.249L4.642,140.071L4.475,139.897L4.303,139.726L4.128,139.559L3.949,139.397L3.768,139.239L3.582,139.085L3.394,138.934L3.201,138.789L3.007,138.647L2.81,138.511L2.609,138.379L2.407,138.253L2.202,138.13L1.995,138.012L1.787,137.9L1.576,137.793L1.364,137.69L1.151,137.592L0.937,137.501L0.721,137.413L0.504,137.331L0.287,137.253L0.069,137.18L-0.149,137.113L-0.368,137.05L-0.586,136.993L-0.805,136.94L-1.023,136.891L-1.241,136.848L-1.458,136.81L-1.675,136.776L-1.892,136.747L-2.106,136.722L-2.32,136.702L-159.91,136.702L-160.124,136.722L-160.339,136.747L-160.555,136.776L-160.771,136.81L-160.989,136.848L-161.207,136.892L-161.425,136.94L-161.644,136.993L-161.862,137.05L-162.081,137.113L-162.299,137.18L-162.517,137.253L-162.734,137.331L-162.951,137.413L-163.167,137.501L-163.381,137.593L-163.594,137.691L-163.806,137.793L-164.017,137.901L-164.225,138.013L-164.432,138.13L-164.637,138.253L-164.839,138.379L-165.039,138.511L-165.236,138.648L-165.431,138.789L-165.623,138.934L-165.812,139.085L-165.997,139.239L-166.179,139.397L-166.358,139.56L-166.533,139.726L-166.704,139.897L-166.872,140.071L-167.035,140.25L-167.194,140.43L-167.349,140.615L-167.5,140.803L-167.646,140.994L-167.787,141.188L-167.924,141.384L-168.057,141.583L-168.184,141.785L-168.307,141.988L-168.425,142.194L-168.538,142.401L-168.646,142.61L-168.749,142.821L-168.847,143.033L-168.94,143.247L-169.029,143.461L-169.112,143.675L-169.19,143.891L-169.263,144.108L-169.332,144.325L-169.395,144.542L-169.454,144.758L-169.507,144.975L-169.557,145.192L-169.601,145.409L-169.64,145.625L-169.675,145.839L-169.706,146.053L-169.731,146.267L-179.671,235.359L-179.698,235.633L-179.718,235.911L-179.731,236.19L-179.737,236.47L-179.736,236.752L-179.727,237.034L-179.711,237.317L-179.687,237.6L-179.656,237.883L-179.617,238.168L-179.57,238.45L-179.517,238.732L-179.455,239.012L-179.386,239.292L-179.309,239.57L-179.225,239.845L-179.134,240.119L-179.035,240.389L-178.929,240.657L-178.817,240.921L-178.697,241.182L-178.571,241.439L-178.438,241.693L-178.299,241.942L-178.154,242.186L-178.003,242.426L-177.847,242.662L-177.685,242.892L-177.518,243.117L-177.345,243.337L-177.168,243.55L-176.986,243.758L-176.799,243.962L-176.606,244.162L-176.408,244.357L-176.203,244.548L-175.992,244.735L-175.775,244.917L-175.554,245.093L-175.327,245.265L-175.094,245.43L-174.857,245.59L-174.616,245.745L-174.37,245.892L-174.119,246.034L-173.865,246.168L-173.607,246.296L-173.345,246.418L-173.081,246.531L-172.813,246.638L-172.543,246.738L-172.271,246.831L-171.997,246.916L-171.721,246.993L-171.444,247.063L-171.166,247.126L-170.887,247.18L-170.607,247.228L-170.327,247.268L-170.048,247.3L-169.769,247.326L-169.49,247.343L-169.212,247.354L-168.937,247.358L0,247.358ZM-188.412,105.245L-173.834,-75.421L-173.834,-76.176L-173.781,-76.747L-173.715,-77.322L-173.637,-77.899L-173.544,-78.479L-173.439,-79.062L-173.32,-79.646L-173.187,-80.231L-173.04,-80.817L-172.878,-81.404L-172.702,-81.991L-172.512,-82.577L-172.307,-83.161L-172.088,-83.745L-171.854,-84.326L-171.605,-84.904L-171.341,-85.479L-171.063,-86.051L-170.77,-86.618L-170.462,-87.181L-170.14,-87.738L-169.803,-88.289L-169.452,-88.833L-169.087,-89.371L-168.708,-89.901L-168.316,-90.423L-167.91,-90.936L-167.491,-91.44L-167.059,-91.935L-166.615,-92.419L-166.159,-92.893L-165.691,-93.356L-165.211,-93.808L-164.721,-94.247L-164.221,-94.675L-163.71,-95.09L-163.19,-95.492L-162.661,-95.88L-162.123,-96.256L-161.577,-96.617L-161.024,-96.964L-160.464,-97.297L-159.898,-97.616L-159.326,-97.919L-158.748,-98.208L-158.166,-98.483L-157.58,-98.742L-156.99,-98.986L-156.397,-99.216L-155.801,-99.43L-155.204,-99.629L-154.605,-99.814L-154.006,-99.984L-153.406,-100.139L-152.806,-100.279L-152.207,-100.405L-151.608,-100.516L-151.012,-100.613L-150.417,-100.697L-149.826,-100.767L-149.236,-100.823L-148.65,-100.866L-148.068,-100.896L-147.49,-100.913L-146.917,-100.918L-15.313,-100.918L-14.739,-100.913L-14.161,-100.896L-13.579,-100.866L-12.993,-100.823L-12.404,-100.767L-11.812,-100.697L-11.218,-100.613L-10.621,-100.516L-10.022,-100.405L-9.424,-100.279L-8.823,-100.139L-8.224,-99.984L-7.624,-99.814L-7.025,-99.629L-6.428,-99.43L-5.832,-99.216L-5.239,-98.986L-4.649,-98.742L-4.063,-98.483L-3.481,-98.208L-2.903,-97.919L-2.332,-97.616L-1.766,-97.297L-1.205,-96.964L-0.652,-96.617L-0.106,-96.256L0.431,-95.88L0.96,-95.492L1.48,-95.09L1.991,-94.675L2.492,-94.247L2.982,-93.808L3.461,-93.356L3.93,-92.893L4.386,-92.419L4.83,-91.935L5.262,-91.44L5.681,-90.936L6.087,-90.423L6.479,-89.901L6.857,-89.371L7.223,-88.833L7.573,-88.289L7.91,-87.738L8.232,-87.181L8.54,-86.618L8.833,-86.051L9.111,-85.479L9.375,-84.904L9.624,-84.326L9.858,-83.745L10.078,-83.161L10.282,-82.577L10.473,-81.991L10.648,-81.404L10.81,-80.817L10.957,-80.231L11.09,-79.646L11.209,-79.062L11.315,-78.479L11.407,-77.899L11.486,-77.322L11.552,-76.747L11.605,-76.176L26.183,105.246L31.742,105.245L31.742,113.345L26.899,113.346L45.228,342.445L45.236,342.581L45.242,342.716L45.244,342.854L45.243,342.991L45.238,343.129L45.23,343.268L45.219,343.407L45.203,343.546L45.184,343.684L45.161,343.822L45.135,343.961L45.104,344.098L45.07,344.235L45.033,344.371L44.992,344.506L44.948,344.64L44.9,344.773L44.849,344.905L44.794,345.035L44.736,345.164L44.675,345.29L44.61,345.415L44.543,345.538L44.473,345.659L44.398,345.777L44.322,345.894L44.243,346.007L44.162,346.12L44.078,346.228L43.991,346.335L43.903,346.438L43.813,346.539L43.719,346.637L43.622,346.734L43.523,346.829L43.422,346.921L43.316,347.011L43.209,347.099L43.1,347.185L42.987,347.267L42.872,347.347L42.755,347.424L42.636,347.499L42.515,347.57L42.391,347.638L42.266,347.703L42.139,347.764L42.01,347.823L41.88,347.878L41.748,347.929L41.615,347.977L41.481,348.022L41.347,348.063L41.211,348.1L41.075,348.134L40.938,348.165L40.802,348.191L40.664,348.213L40.527,348.233L40.39,348.249L40.253,348.261L40.116,348.269L39.979,348.275L39.844,348.276L34.871,348.276L34.758,348.275L34.645,348.272L34.529,348.265L34.414,348.257L34.299,348.246L34.183,348.232L34.065,348.216L33.948,348.197L33.83,348.175L33.713,348.151L33.595,348.124L33.477,348.093L33.359,348.06L33.241,348.025L33.124,347.986L33.007,347.945L32.891,347.9L32.774,347.853L32.659,347.802L32.545,347.75L32.432,347.694L32.319,347.635L32.207,347.574L32.097,347.509L31.988,347.443L31.881,347.373L31.774,347.3L31.67,347.225L31.567,347.148L31.467,347.068L31.367,346.986L31.271,346.901L31.175,346.813L31.082,346.724L30.991,346.632L30.903,346.54L30.816,346.444L30.733,346.346L30.652,346.247L30.573,346.146L30.497,346.044L30.424,345.94L30.353,345.835L30.285,345.728L30.22,345.62L30.157,345.511L30.097,345.401L30.04,345.29L29.986,345.178L29.935,345.066L29.886,344.953L29.84,344.839L29.797,344.726L29.757,344.612L29.72,344.498L29.685,344.383L29.653,344.268L29.624,344.154L29.598,344.04L29.573,343.926L29.552,343.812L29.533,343.699L29.518,343.587L29.504,343.474L22.262,278.564L22.234,278.34L22.202,278.115L22.165,277.888L22.122,277.662L22.074,277.433L22.021,277.205L21.963,276.976L21.899,276.748L21.83,276.519L21.755,276.29L21.675,276.062L21.589,275.835L21.497,275.607L21.4,275.381L21.298,275.157L21.189,274.933L21.075,274.712L20.955,274.492L20.83,274.274L20.699,274.058L20.563,273.844L20.422,273.633L20.274,273.425L20.123,273.221L19.965,273.019L19.803,272.821L19.636,272.626L19.463,272.435L19.286,272.248L19.105,272.065L18.919,271.886L18.729,271.712L18.535,271.543L18.337,271.378L18.135,271.217L17.929,271.062L17.721,270.913L17.508,270.768L17.293,270.629L17.075,270.495L16.854,270.366L16.632,270.243L16.406,270.126L16.18,270.014L15.95,269.908L15.72,269.807L15.488,269.713L15.255,269.625L15.021,269.542L14.786,269.464L14.551,269.392L14.315,269.327L14.079,269.266L13.844,269.212L13.608,269.163L13.373,269.12L13.139,269.082L12.905,269.049L12.672,269.021L12.44,269L12.21,268.982L11.98,268.97L11.753,268.963L11.527,268.961L0,268.961L-173.756,268.961L-173.982,268.963L-174.21,268.97L-174.439,268.982L-174.67,269L-174.901,269.021L-175.134,269.049L-175.368,269.082L-175.603,269.12L-175.838,269.163L-176.073,269.212L-176.309,269.266L-176.545,269.327L-176.78,269.392L-177.016,269.464L-177.25,269.542L-177.484,269.625L-177.717,269.713L-177.949,269.807L-178.18,269.908L-178.409,270.014L-178.636,270.126L-178.861,270.243L-179.084,270.366L-179.305,270.495L-179.522,270.629L-179.738,270.768L-179.95,270.913L-180.159,271.062L-180.364,271.217L-180.566,271.378L-180.764,271.543L-180.958,271.712L-181.148,271.886L-181.334,272.065L-181.516,272.248L-181.693,272.435L-181.865,272.626L-182.032,272.821L-182.195,273.019L-182.352,273.221L-182.504,273.425L-182.651,273.633L-182.793,273.844L-182.929,274.058L-183.06,274.274L-183.185,274.492L-183.305,274.712L-183.418,274.933L-183.527,275.157L-183.63,275.381L-183.727,275.607L-183.818,275.835L-183.904,276.062L-183.985,276.29L-184.06,276.519L-184.129,276.748L-184.192,276.976L-184.251,277.205L-184.304,277.433L-184.352,277.662L-184.394,277.888L-184.432,278.115L-184.464,278.34L-184.491,278.564L-191.733,343.474L-191.747,343.587L-191.763,343.699L-191.782,343.812L-191.803,343.926L-191.827,344.04L-191.854,344.154L-191.882,344.268L-191.915,344.383L-191.949,344.498L-191.986,344.612L-192.026,344.726L-192.069,344.839L-192.115,344.953L-192.164,345.066L-192.215,345.178L-192.27,345.29L-192.327,345.401L-192.386,345.511L-192.449,345.62L-192.514,345.728L-192.583,345.835L-192.653,345.94L-192.727,346.044L-192.803,346.146L-192.881,346.247L-192.962,346.346L-193.046,346.444L-193.132,346.54L-193.221,346.632L-193.312,346.724L-193.404,346.813L-193.5,346.901L-193.597,346.986L-193.696,347.068L-193.797,347.148L-193.899,347.225L-194.004,347.3L-194.11,347.373L-194.218,347.443L-194.327,347.509L-194.437,347.574L-194.548,347.635L-194.661,347.694L-194.774,347.75L-194.889,347.802L-195.004,347.853L-195.12,347.9L-195.237,347.945L-195.354,347.986L-195.471,348.025L-195.588,348.06L-195.707,348.093L-195.824,348.124L-195.942,348.151L-196.06,348.175L-196.177,348.197L-196.295,348.216L-196.412,348.232L-196.528,348.246L-196.644,348.257L-196.759,348.265L-196.874,348.272L-196.987,348.275L-197.101,348.276L-202.073,348.276L-202.209,348.275L-202.345,348.269L-202.482,348.261L-202.619,348.249L-202.756,348.233L-202.894,348.213L-203.031,348.191L-203.168,348.165L-203.305,348.134L-203.441,348.1L-203.576,348.063L-203.711,348.022L-203.845,347.977L-203.978,347.929L-204.109,347.878L-204.239,347.823L-204.368,347.764L-204.495,347.703L-204.62,347.638L-204.744,347.57L-204.865,347.499L-204.984,347.424L-205.102,347.347L-205.216,347.267L-205.329,347.185L-205.439,347.099L-205.546,347.011L-205.651,346.921L-205.753,346.829L-205.852,346.734L-205.948,346.637L-206.042,346.539L-206.132,346.438L-206.221,346.335L-206.307,346.228L-206.392,346.12L-206.473,346.007L-206.552,345.894L-206.628,345.777L-206.702,345.659L-206.772,345.538L-206.84,345.415L-206.904,345.29L-206.965,345.164L-207.023,345.035L-207.078,344.905L-207.13,344.773L-207.178,344.64L-207.222,344.506L-207.263,344.371L-207.3,344.235L-207.334,344.098L-207.364,343.961L-207.39,343.822L-207.413,343.684L-207.432,343.546L-207.448,343.407L-207.459,343.268L-207.468,343.129L-207.473,342.991L-207.474,342.854L-207.472,342.716L-207.466,342.581L-207.457,342.445L-189.129,113.345L-194.092,113.345L-194.092,105.245L-188.412,105.245Z" style="fill:white;"/>
            </g>
        </g>
        <g transform="matrix(4.16667,0,0,4.16667,18000,0)">
            <g transform="matrix(1,0,0,1,1237.13,674.642)">
                <path d="M0,-27.322L-0.226,-27.32L-0.453,-27.312L-0.683,-27.301L-0.913,-27.284L-1.145,-27.261L-1.378,-27.234L-1.611,-27.201L-1.846,-27.163L-2.081,-27.12L-2.316,-27.071L-2.553,-27.016L-2.788,-26.956L-3.023,-26.89L-3.259,-26.819L-3.494,-26.742L-3.728,-26.659L-3.961,-26.57L-4.192,-26.475L-4.423,-26.375L-4.652,-26.269L-4.879,-26.157L-5.104,-26.04L-5.327,-25.917L-5.548,-25.789L-5.766,-25.655L-5.98,-25.515L-6.193,-25.371L-6.402,-25.22L-6.607,-25.065L-6.81,-24.905L-7.008,-24.741L-7.202,-24.571L-7.392,-24.396L-7.578,-24.218L-7.759,-24.035L-7.937,-23.848L-8.108,-23.657L-8.275,-23.463L-8.438,-23.263L-8.596,-23.062L-8.748,-22.857L-8.895,-22.649L-9.036,-22.438L-9.172,-22.225L-9.303,-22.01L-9.428,-21.792L-9.548,-21.571L-9.662,-21.349L-9.771,-21.127L-9.873,-20.901L-9.971,-20.676L-10.062,-20.449L-10.147,-20.221L-10.229,-19.993L-10.303,-19.764L-10.372,-19.536L-10.436,-19.306L-10.494,-19.078L-10.547,-18.849L-10.595,-18.622L-10.638,-18.394L-10.675,-18.168L-10.707,-17.943L-10.734,-17.718L-18.331,50.369L-18.345,50.507L-18.354,50.646L-18.361,50.784L-18.364,50.925L-18.363,51.066L-18.359,51.207L-18.351,51.349L-18.339,51.491L-18.323,51.632L-18.304,51.774L-18.28,51.915L-18.254,52.056L-18.223,52.197L-18.188,52.336L-18.149,52.475L-18.107,52.613L-18.062,52.749L-18.013,52.884L-17.96,53.018L-17.903,53.151L-17.844,53.282L-17.781,53.409L-17.715,53.536L-17.646,53.661L-17.572,53.783L-17.497,53.904L-17.419,54.021L-17.338,54.136L-17.254,54.248L-17.168,54.358L-17.079,54.465L-16.988,54.57L-16.896,54.671L-16.799,54.771L-16.699,54.868L-16.597,54.964L-16.491,55.058L-16.383,55.149L-16.272,55.237L-16.159,55.323L-16.043,55.406L-15.924,55.486L-15.803,55.562L-15.68,55.636L-15.555,55.706L-15.428,55.774L-15.299,55.838L-15.168,55.899L-15.036,55.955L-14.902,56.009L-14.768,56.059L-14.631,56.105L-14.494,56.148L-14.356,56.187L-14.218,56.221L-14.078,56.252L-13.938,56.281L-13.799,56.304L-13.659,56.324L-13.52,56.34L-13.38,56.353L-13.24,56.362L-13.102,56.367L-12.964,56.369L276.742,56.369L276.88,56.367L277.019,56.362L277.158,56.353L277.298,56.34L277.437,56.324L277.577,56.304L277.717,56.281L277.856,56.252L277.996,56.221L278.135,56.187L278.272,56.148L278.409,56.105L278.546,56.059L278.681,56.009L278.814,55.955L278.946,55.899L279.077,55.838L279.206,55.774L279.333,55.706L279.459,55.636L279.582,55.562L279.702,55.486L279.821,55.406L279.937,55.323L280.051,55.237L280.161,55.149L280.27,55.058L280.375,54.964L280.478,54.868L280.577,54.771L280.674,54.671L280.767,54.57L280.857,54.465L280.946,54.358L281.032,54.248L281.116,54.136L281.197,54.021L281.275,53.904L281.351,53.783L281.424,53.661L281.493,53.536L281.56,53.409L281.622,53.282L281.683,53.151L281.738,53.018L281.791,52.884L281.841,52.749L281.887,52.613L281.929,52.475L281.967,52.336L282.001,52.197L282.032,52.056L282.06,51.915L282.082,51.774L282.102,51.632L282.117,51.491L282.129,51.349L282.138,51.207L282.142,51.066L282.143,50.925L282.14,50.784L282.133,50.646L282.123,50.507L282.109,50.369L274.514,-17.718L274.485,-17.943L274.453,-18.168L274.416,-18.394L274.373,-18.622L274.326,-18.849L274.272,-19.078L274.215,-19.306L274.15,-19.536L274.081,-19.764L274.007,-19.993L273.926,-20.221L273.84,-20.449L273.749,-20.676L273.651,-20.901L273.549,-21.127L273.44,-21.349L273.326,-21.571L273.207,-21.792L273.081,-22.01L272.951,-22.225L272.814,-22.438L272.673,-22.649L272.526,-22.857L272.374,-23.062L272.217,-23.263L272.054,-23.463L271.887,-23.657L271.715,-23.848L271.538,-24.035L271.356,-24.218L271.171,-24.396L270.98,-24.571L270.786,-24.741L270.588,-24.905L270.386,-25.065L270.181,-25.22L269.972,-25.371L269.76,-25.515L269.544,-25.655L269.326,-25.789L269.105,-25.917L268.883,-26.04L268.657,-26.157L268.431,-26.269L268.201,-26.375L267.971,-26.475L267.739,-26.57L267.506,-26.659L267.272,-26.742L267.037,-26.819L266.802,-26.89L266.566,-26.956L266.331,-27.016L266.095,-27.071L265.859,-27.12L265.624,-27.163L265.39,-27.201L265.156,-27.234L264.923,-27.261L264.691,-27.284L264.461,-27.301L264.231,-27.312L264.004,-27.32L263.778,-27.322L0,-27.322ZM260.331,-157.605L3.447,-157.605L2.874,-157.6L2.296,-157.583L1.714,-157.552L1.128,-157.509L0.539,-157.453L-0.054,-157.384L-0.647,-157.301L-1.244,-157.203L-1.843,-157.092L-2.441,-156.966L-3.041,-156.825L-3.642,-156.671L-4.241,-156.501L-4.84,-156.317L-5.437,-156.117L-6.032,-155.903L-6.626,-155.674L-7.216,-155.429L-7.802,-155.17L-8.384,-154.896L-8.961,-154.606L-9.533,-154.302L-10.1,-153.984L-10.66,-153.651L-11.213,-153.304L-11.759,-152.943L-12.296,-152.568L-12.825,-152.179L-13.346,-151.777L-13.856,-151.362L-14.356,-150.935L-14.847,-150.495L-15.326,-150.044L-15.795,-149.58L-16.251,-149.107L-16.695,-148.622L-17.127,-148.128L-17.546,-147.623L-17.951,-147.11L-18.344,-146.588L-18.723,-146.058L-19.088,-145.52L-19.438,-144.976L-19.775,-144.425L-20.098,-143.867L-20.405,-143.305L-20.698,-142.738L-20.977,-142.166L-21.24,-141.591L-21.489,-141.012L-21.724,-140.431L-21.943,-139.848L-22.147,-139.263L-22.338,-138.677L-22.514,-138.091L-22.675,-137.504L-22.822,-136.918L-22.955,-136.333L-23.074,-135.749L-23.18,-135.166L-23.272,-134.586L-23.352,-134.009L-23.417,-133.434L-23.471,-132.863L-23.471,-132.108L-29.426,-58.741L-33.985,-58.741L-35.392,-58.741L-35.382,-58.741L-35.382,-50.639L-35.391,-50.639L-30.132,-50.639L-44.14,124.452L-44.148,124.588L-44.154,124.724L-44.156,124.862L-44.155,124.998L-44.15,125.137L-44.143,125.276L-44.13,125.414L-44.115,125.553L-44.096,125.692L-44.073,125.829L-44.047,125.968L-44.017,126.106L-43.982,126.242L-43.945,126.378L-43.904,126.514L-43.86,126.648L-43.813,126.781L-43.761,126.912L-43.706,127.042L-43.648,127.171L-43.587,127.297L-43.522,127.422L-43.455,127.545L-43.384,127.666L-43.311,127.784L-43.234,127.902L-43.155,128.015L-43.074,128.127L-42.99,128.236L-42.903,128.342L-42.814,128.446L-42.724,128.546L-42.631,128.645L-42.534,128.741L-42.436,128.836L-42.333,128.929L-42.229,129.019L-42.121,129.107L-42.012,129.193L-41.899,129.275L-41.784,129.355L-41.667,129.432L-41.548,129.506L-41.426,129.577L-41.303,129.646L-41.178,129.71L-41.051,129.772L-40.922,129.83L-40.792,129.885L-40.66,129.937L-40.527,129.985L-40.394,130.03L-40.259,130.071L-40.123,130.108L-39.987,130.142L-39.851,130.172L-39.714,130.199L-39.576,130.221L-39.438,130.24L-39.302,130.256L-39.164,130.269L-39.027,130.277L-38.892,130.282L-38.756,130.283L-32.078,130.283L-31.965,130.282L-31.852,130.28L-31.737,130.273L-31.622,130.265L-31.506,130.253L-31.39,130.24L-31.272,130.224L-31.155,130.204L-31.038,130.183L-30.92,130.158L-30.802,130.131L-30.685,130.101L-30.566,130.068L-30.449,130.032L-30.331,129.993L-30.215,129.952L-30.098,129.907L-29.982,129.861L-29.867,129.81L-29.752,129.757L-29.639,129.701L-29.526,129.643L-29.415,129.581L-29.305,129.517L-29.195,129.45L-29.088,129.38L-28.981,129.308L-28.877,129.233L-28.774,129.156L-28.674,129.075L-28.574,128.993L-28.478,128.908L-28.382,128.821L-28.289,128.732L-28.198,128.64L-28.11,128.547L-28.024,128.451L-27.94,128.354L-27.859,128.254L-27.78,128.154L-27.704,128.051L-27.631,127.948L-27.561,127.842L-27.492,127.736L-27.427,127.627L-27.364,127.519L-27.305,127.408L-27.247,127.297L-27.193,127.186L-27.142,127.074L-27.093,126.96L-27.047,126.847L-27.004,126.734L-26.964,126.619L-26.927,126.505L-26.893,126.391L-26.86,126.276L-26.831,126.161L-26.805,126.047L-26.78,125.934L-26.76,125.82L-26.741,125.706L-26.725,125.594L-26.711,125.482L-22.481,87.575L-22.454,87.351L-22.422,87.126L-22.385,86.9L-22.342,86.672L-22.294,86.445L-22.241,86.216L-22.183,85.988L-22.119,85.758L-22.05,85.53L-21.976,85.301L-21.895,85.073L-21.809,84.845L-21.718,84.618L-21.62,84.393L-21.518,84.167L-21.409,83.945L-21.295,83.723L-21.176,83.502L-21.05,83.284L-20.919,83.069L-20.783,82.856L-20.642,82.645L-20.495,82.437L-20.343,82.232L-20.186,82.031L-20.022,81.831L-19.855,81.637L-19.684,81.446L-19.507,81.259L-19.325,81.076L-19.139,80.898L-18.949,80.723L-18.755,80.553L-18.557,80.389L-18.354,80.229L-18.149,80.074L-17.94,79.923L-17.728,79.779L-17.513,79.639L-17.295,79.505L-17.074,79.377L-16.852,79.254L-16.626,79.137L-16.399,79.025L-16.17,78.919L-15.939,78.819L-15.708,78.724L-15.475,78.635L-15.241,78.552L-15.006,78.475L-14.771,78.404L-14.535,78.338L-14.3,78.278L-14.063,78.223L-13.828,78.174L-13.593,78.131L-13.358,78.093L-13.125,78.06L-12.892,78.032L-12.66,78.01L-12.43,77.993L-12.2,77.982L-11.973,77.974L-11.747,77.972L275.525,77.972L275.751,77.974L275.979,77.982L276.208,77.993L276.438,78.01L276.671,78.032L276.903,78.06L277.137,78.093L277.371,78.131L277.606,78.174L277.842,78.223L278.078,78.278L278.313,78.338L278.549,78.404L278.784,78.475L279.02,78.552L279.253,78.635L279.486,78.724L279.718,78.819L279.948,78.919L280.178,79.025L280.404,79.137L280.63,79.254L280.853,79.377L281.073,79.505L281.291,79.639L281.507,79.779L281.719,79.923L281.928,80.074L282.133,80.229L282.335,80.389L282.533,80.553L282.728,80.723L282.918,80.898L283.104,81.076L283.285,81.259L283.462,81.446L283.634,81.637L283.801,81.831L283.964,82.031L284.121,82.232L284.273,82.437L284.42,82.645L284.562,82.856L284.698,83.069L284.828,83.284L284.954,83.502L285.073,83.723L285.187,83.945L285.296,84.167L285.398,84.393L285.496,84.618L285.587,84.845L285.673,85.073L285.754,85.301L285.828,85.53L285.897,85.758L285.962,85.988L286.02,86.216L286.073,86.445L286.121,86.672L286.163,86.9L286.2,87.126L286.233,87.351L286.261,87.575L290.489,125.482L290.503,125.594L290.52,125.706L290.538,125.82L290.56,125.934L290.583,126.047L290.609,126.161L290.639,126.276L290.671,126.391L290.705,126.505L290.742,126.619L290.783,126.734L290.826,126.847L290.871,126.96L290.92,127.074L290.972,127.186L291.025,127.297L291.083,127.408L291.143,127.519L291.205,127.627L291.271,127.736L291.339,127.842L291.409,127.948L291.483,128.051L291.559,128.154L291.638,128.254L291.719,128.354L291.803,128.451L291.889,128.547L291.978,128.64L292.067,128.732L292.161,128.821L292.256,128.908L292.353,128.993L292.452,129.075L292.553,129.156L292.655,129.233L292.76,129.308L292.866,129.38L292.974,129.45L293.083,129.517L293.193,129.581L293.305,129.643L293.417,129.701L293.53,129.757L293.646,129.81L293.761,129.861L293.876,129.907L293.993,129.952L294.11,129.993L294.228,130.032L294.345,130.068L294.463,130.101L294.581,130.131L294.698,130.158L294.816,130.183L294.934,130.204L295.051,130.224L295.168,130.24L295.284,130.253L295.4,130.265L295.516,130.273L295.63,130.28L295.744,130.282L295.856,130.283L302.534,130.283L302.67,130.282L302.807,130.277L302.943,130.269L303.08,130.256L303.218,130.24L303.354,130.221L303.492,130.199L303.629,130.172L303.766,130.142L303.901,130.108L304.037,130.071L304.172,130.03L304.306,129.985L304.438,129.937L304.57,129.885L304.7,129.83L304.829,129.772L304.956,129.71L305.081,129.646L305.205,129.577L305.326,129.506L305.445,129.432L305.562,129.355L305.678,129.275L305.79,129.193L305.899,129.107L306.007,129.019L306.112,128.929L306.214,128.836L306.312,128.741L306.409,128.645L306.503,128.546L306.593,128.446L306.682,128.342L306.769,128.236L306.853,128.127L306.934,128.015L307.013,127.902L307.089,127.784L307.163,127.666L307.233,127.545L307.301,127.422L307.365,127.297L307.427,127.171L307.484,127.042L307.539,126.912L307.591,126.781L307.639,126.648L307.683,126.514L307.724,126.378L307.761,126.242L307.795,126.106L307.825,125.968L307.852,125.829L307.874,125.692L307.894,125.553L307.909,125.414L307.921,125.276L307.929,125.137L307.934,124.998L307.935,124.862L307.933,124.724L307.927,124.588L307.918,124.452L293.91,-50.639L298.476,-50.639L298.467,-50.639L298.467,-58.741L298.476,-58.741L293.204,-58.741L287.249,-132.863L287.195,-133.434L287.13,-134.009L287.051,-134.586L286.959,-135.166L286.853,-135.749L286.733,-136.333L286.601,-136.918L286.453,-137.504L286.292,-138.091L286.116,-138.677L285.926,-139.263L285.722,-139.848L285.502,-140.431L285.268,-141.012L285.019,-141.591L284.755,-142.166L284.477,-142.738L284.184,-143.305L283.876,-143.867L283.554,-144.425L283.217,-144.976L282.866,-145.52L282.501,-146.058L282.122,-146.588L281.73,-147.11L281.324,-147.623L280.905,-148.128L280.474,-148.622L280.029,-149.107L279.573,-149.58L279.104,-150.044L278.626,-150.495L278.136,-150.935L277.635,-151.362L277.124,-151.777L276.604,-152.179L276.075,-152.568L275.537,-152.943L274.991,-153.304L274.438,-153.651L273.878,-153.984L273.312,-154.302L272.74,-154.606L272.162,-154.896L271.58,-155.17L270.994,-155.429L270.404,-155.674L269.812,-155.903L269.216,-156.117L268.618,-156.317L268.02,-156.501L267.42,-156.671L266.82,-156.825L266.22,-156.966L265.621,-157.092L265.022,-157.203L264.426,-157.301L263.832,-157.384L263.239,-157.453L262.65,-157.509L262.064,-157.552L261.482,-157.583L260.905,-157.6L260.331,-157.605Z" style="fill:white;"/>
            </g>
        </g>
    </g>
</svg>
