<?xml version="1.0" encoding="UTF-8" standalone="no"?>
<!DOCTYPE svg PUBLIC "-//W3C//DTD SVG 1.1//EN" "http://www.w3.org/Graphics/SVG/1.1/DTD/svg11.dtd">
<svg width="100%" height="100%" viewBox="0 0 269 43" version="1.1" xmlns="http://www.w3.org/2000/svg" xmlns:xlink="http://www.w3.org/1999/xlink" xml:space="preserve" xmlns:serif="http://www.serif.com/" style="fill-rule:evenodd;clip-rule:evenodd;stroke-linejoin:round;stroke-miterlimit:2;">
    <g transform="matrix(1,0,0,1,-24670.8,-3908.33)">
        <g transform="matrix(4.16667,0,0,4.16667,18000,0)">
            <g transform="matrix(1,0,0,1,0,806.05)">
                <path d="M1608.03,137.116C1608.03,136.632 1608.04,136.148 1608.03,135.665C1608.03,135.602 1608.01,135.524 1607.97,135.481C1607.84,135.337 1607.7,135.187 1607.54,135.072C1607.08,134.738 1606.55,134.658 1606,134.727C1605.28,134.816 1604.73,135.156 1604.36,135.773C1604.02,136.329 1603.94,136.937 1604.04,137.571C1604.13,138.127 1604.37,138.609 1604.8,138.983C1605.17,139.303 1605.6,139.468 1606.09,139.51C1606.83,139.574 1607.47,139.361 1607.95,138.766C1608,138.709 1608.03,138.619 1608.03,138.543C1608.04,138.067 1608.03,137.592 1608.03,137.116M1607.68,133.069C1607.93,132.818 1608.18,132.583 1608.41,132.328C1608.55,132.171 1608.7,132.113 1608.91,132.118C1609.57,132.132 1610.22,132.123 1610.88,132.123C1611.04,132.123 1611.04,132.123 1611.04,132.286L1611.04,140.129C1611.04,140.739 1611.03,141.35 1611.04,141.962C1611.04,142.071 1611.02,142.111 1610.89,142.11C1610.18,142.104 1609.46,142.109 1608.74,142.103C1608.68,142.103 1608.6,142.072 1608.56,142.029C1608.29,141.773 1608.03,141.511 1607.77,141.248C1607.74,141.218 1607.73,141.173 1607.7,141.137C1607.53,141.285 1607.39,141.411 1607.23,141.525C1606.6,142.004 1605.89,142.265 1605.09,142.262C1604.27,142.257 1603.54,141.97 1602.89,141.453C1602.06,140.78 1601.53,139.904 1601.25,138.884C1600.78,137.232 1600.93,135.636 1601.76,134.124C1602.2,133.327 1602.81,132.683 1603.64,132.3C1604.98,131.685 1606.22,131.9 1607.36,132.794C1607.46,132.877 1607.56,132.97 1607.68,133.069" style="fill:rgb(138,120,111);fill-rule:nonzero;"/>
            </g>
        </g>
        <g transform="matrix(4.16667,0,0,4.16667,18000,0)">
            <g transform="matrix(1,0,0,1,0,806.326)">
                <path d="M1628.31,136.84C1628.31,136.412 1628.3,135.984 1628.32,135.556C1628.33,135.326 1628.26,135.157 1628.09,135.017C1627.98,134.922 1627.87,134.82 1627.75,134.742C1627.3,134.456 1626.8,134.386 1626.28,134.451C1625.54,134.544 1624.97,134.905 1624.6,135.558C1624.3,136.099 1624.22,136.687 1624.32,137.294C1624.4,137.833 1624.63,138.305 1625.04,138.676C1625.42,139.015 1625.86,139.189 1626.36,139.233C1627.11,139.298 1627.75,139.084 1628.23,138.492C1628.28,138.437 1628.31,138.352 1628.31,138.279C1628.32,137.8 1628.31,137.319 1628.31,136.84M1627.99,140.885C1627.69,141.101 1627.44,141.317 1627.16,141.484C1625.83,142.277 1624.25,142.12 1623.07,141.089C1622.19,140.326 1621.68,139.353 1621.43,138.233C1621.11,136.792 1621.26,135.396 1621.92,134.07C1622.35,133.209 1622.97,132.514 1623.83,132.065C1625.12,131.397 1626.63,131.613 1627.76,132.621C1627.96,132.793 1627.96,132.793 1628.13,132.611C1628.37,132.378 1628.6,132.143 1628.84,131.914C1628.87,131.878 1628.94,131.85 1628.99,131.85C1629.72,131.846 1630.46,131.849 1631.19,131.845C1631.29,131.844 1631.32,131.875 1631.32,131.973C1631.31,132.654 1631.32,133.337 1631.32,134.019L1631.32,141.623C1631.32,141.662 1631.31,141.702 1631.32,141.742C1631.32,141.806 1631.29,141.832 1631.23,141.832C1630.48,141.83 1629.73,141.832 1628.98,141.828C1628.93,141.828 1628.88,141.797 1628.85,141.764C1628.58,141.503 1628.32,141.239 1628.05,140.975C1628.02,140.944 1628,140.904 1627.99,140.885" style="fill:rgb(138,120,111);fill-rule:nonzero;"/>
            </g>
        </g>
        <g transform="matrix(4.16667,0,0,4.16667,18000,0)">
            <g transform="matrix(1,0,0,1,0,806.32)">
                <path d="M1660.19,134.435C1659.28,134.435 1658.53,134.941 1658.19,135.784C1657.97,136.336 1657.93,136.907 1658.06,137.486C1658.29,138.499 1659.04,139.162 1659.97,139.238C1660.81,139.306 1661.49,139.01 1661.96,138.305C1662.38,137.664 1662.46,136.95 1662.31,136.206C1662.1,135.148 1661.24,134.435 1660.19,134.435M1665.38,136.85C1665.38,139.696 1663.05,141.994 1660.18,141.994C1657.36,141.993 1654.99,139.767 1654.98,136.844C1654.98,133.934 1657.34,131.688 1660.18,131.687C1663.06,131.686 1665.38,133.991 1665.38,136.85" style="fill:rgb(138,120,111);fill-rule:nonzero;"/>
            </g>
        </g>
        <g transform="matrix(4.16667,0,0,4.16667,18000,0)">
            <g transform="matrix(1,0,0,1,0,806.339)">
                <path d="M1633.46,131.841L1636.47,131.841L1636.47,138.812L1639.71,138.812L1639.71,131.843L1642.72,131.843L1642.72,141.819L1642.59,141.819C1640.35,141.819 1638.1,141.818 1635.86,141.82C1635.77,141.82 1635.72,141.796 1635.66,141.738C1634.95,141.027 1634.24,140.319 1633.53,139.606C1633.49,139.565 1633.46,139.491 1633.46,139.433L1633.46,131.959L1633.46,131.841Z" style="fill:rgb(138,120,111);fill-rule:nonzero;"/>
            </g>
        </g>
        <g transform="matrix(4.16667,0,0,4.16667,18000,0)">
            <g transform="matrix(1,0,0,1,0,806.339)">
                <path d="M1651.88,137.948C1652.58,138.646 1653.27,139.338 1653.97,140.031C1652.8,141.558 1650.61,142.395 1648.43,141.762C1646.2,141.115 1644.65,139.044 1644.71,136.669C1644.77,134.406 1646.39,132.386 1648.58,131.834C1650.84,131.266 1652.93,132.238 1653.98,133.636C1653.29,134.323 1652.59,135.011 1651.89,135.712C1651.86,135.665 1651.84,135.632 1651.83,135.598C1651.42,134.789 1650.65,134.359 1649.71,134.418C1648.89,134.469 1648.15,135.052 1647.87,135.876C1647.62,136.63 1647.65,137.375 1648.01,138.09C1648.42,138.882 1649.26,139.318 1650.13,139.219C1650.92,139.13 1651.48,138.725 1651.83,138.027C1651.85,138.006 1651.86,137.984 1651.87,137.964C1651.87,137.957 1651.88,137.953 1651.88,137.948" style="fill:rgb(138,120,111);fill-rule:nonzero;"/>
            </g>
        </g>
        <g transform="matrix(4.16667,0,0,4.16667,18000,0)">
            <g transform="matrix(1,0,0,1,0,806.319)">
                <path d="M1613.14,141.83L1613.14,131.86L1616.14,131.86L1616.14,133.726C1616.2,133.674 1616.23,133.647 1616.27,133.616C1616.83,133.055 1617.39,132.491 1617.95,131.932C1617.99,131.894 1618.05,131.857 1618.1,131.856C1618.87,131.851 1619.64,131.853 1620.42,131.853C1620.44,131.853 1620.46,131.857 1620.5,131.86L1620.5,131.991C1620.5,132.888 1620.5,133.784 1620.51,134.681C1620.51,134.808 1620.46,134.831 1620.35,134.831C1619.02,134.828 1617.69,134.829 1616.36,134.829C1616.1,134.829 1616.14,134.818 1616.14,135.042L1616.14,141.83L1613.14,141.83Z" style="fill:rgb(138,120,111);fill-rule:nonzero;"/>
            </g>
        </g>
    </g>
</svg>
