<?xml version="1.0" encoding="UTF-8" standalone="no"?>
<!DOCTYPE svg PUBLIC "-//W3C//DTD SVG 1.1//EN" "http://www.w3.org/Graphics/SVG/1.1/DTD/svg11.dtd">
<svg width="100%" height="100%" viewBox="0 0 779 188" version="1.1" xmlns="http://www.w3.org/2000/svg" xmlns:xlink="http://www.w3.org/1999/xlink" xml:space="preserve" xmlns:serif="http://www.serif.com/" style="fill-rule:evenodd;clip-rule:evenodd;stroke-linejoin:round;stroke-miterlimit:2;">
    <g transform="matrix(2,0,0,2,0,0)">
        <rect id="Mesa-de-trabajo1" serif:id="Mesa de trabajo1" x="0" y="0" width="389.008" height="93.712" style="fill:none;"/>
        <clipPath id="_clip1">
            <rect id="Mesa-de-trabajo11" serif:id="Mesa de trabajo1" x="0" y="0" width="389.008" height="93.712"/>
        </clipPath>
        <g clip-path="url(#_clip1)">
            <g transform="matrix(1,0,0,1,-40.6179,-53.7438)">
                <g id="Capa1">
                    <g>
                        <g transform="matrix(-4.16667,0,0,4.16667,248.542,129.692)">
                            <path d="M0.194,-6.528C2.355,-6.528 3.611,-5.03 3.611,-3.25C3.611,-1.413 2.355,0 0.194,0C-1.968,0 -3.417,-1.413 -3.417,-3.25C-3.417,-5.03 -1.968,-6.528 0.194,-6.528" style="fill:white;fill-rule:nonzero;"/>
                        </g>
                        <g transform="matrix(4.16667,0,0,4.16667,173.943,125.316)">
                            <path d="M0,-4.385C0.322,-5.883 1.29,-6.675 2.839,-6.675C4.27,-6.675 5.584,-5.77 5.847,-4.385L0,-4.385ZM2.424,-9.919C2.245,-9.919 2.069,-9.915 1.894,-9.907C-2.312,-9.896 -5.408,-7.708 -6.606,-4.851C-6.778,-7.833 -8.159,-9.919 -11.697,-9.919C-13.743,-9.919 -15.758,-8.958 -16.78,-7.15C-17.841,-9.035 -19.659,-9.886 -21.77,-9.918L-21.892,-9.919L-31.998,-9.924L-31.998,5.058L-26.682,5.058L-26.682,-1.866C-26.682,-3.476 -26.682,-5.935 -24.316,-5.935C-21.95,-5.935 -21.95,-3.476 -21.95,-1.866L-21.95,5.058L-16.634,5.058L-16.634,-1.866C-16.634,-3.589 -16.547,-5.822 -14.092,-5.822C-11.844,-5.822 -11.902,-3.363 -11.902,-1.866L-11.902,5.058L-6.586,5.058L-6.586,0.598C-5.371,3.45 -2.268,5.511 1.93,5.51C2.216,5.529 2.508,5.539 2.803,5.539C6.221,5.539 9.581,3.984 10.427,0.565L5.316,0.565C4.732,1.526 3.914,1.893 2.775,1.893C0.584,1.893 -0.555,0.763 -0.555,-1.328L10.632,-1.328L10.632,-1.866C10.632,-6.81 7.623,-9.919 2.424,-9.919" style="fill:white;fill-rule:nonzero;"/>
                        </g>
                        <g transform="matrix(4.16667,0,0,4.16667,389.976,73.3438)">
                            <path d="M0,13.563C-2.161,13.563 -3.418,12.15 -3.418,10.313C-3.418,8.533 -2.161,7.035 0,7.035C2.162,7.035 3.418,8.533 3.418,10.313C3.418,12.15 2.162,13.563 0,13.563M-16.899,13.597C-19.06,13.597 -20.316,12.184 -20.316,10.347C-20.316,8.567 -19.06,7.069 -16.899,7.069C-14.737,7.069 -13.481,8.567 -13.481,10.347C-13.481,12.184 -14.737,13.597 -16.899,13.597M0.491,2.57C0.342,2.57 0.194,2.572 0.047,2.577L-0.054,2.582C-0.285,2.592 -0.513,2.609 -0.74,2.632C-5.04,3.042 -8.25,5.19 -9.406,7.985L-9.411,-4.464L-14.726,-4.464L-14.717,4.449C-15.828,3.176 -17.638,2.555 -19.362,2.555C-23.801,2.555 -26.868,6.115 -26.868,10.269C-26.868,14.376 -23.813,17.931 -19.452,18.011C-19.456,18.021 -9.556,18.021 -9.556,18.021L-9.405,18.021L-9.402,17.531L-9.404,12.643C-8.123,15.729 -4.373,18.02 0.044,18.02C0.192,18.025 0.34,18.027 0.491,18.027C5.31,18.027 9.516,15.229 9.516,10.312C9.516,5.368 5.31,2.57 0.491,2.57" style="fill:white;fill-rule:nonzero;"/>
                        </g>
                    </g>
                </g>
            </g>
        </g>
    </g>
</svg>
