<?xml version="1.0" encoding="UTF-8" standalone="no"?>
<!DOCTYPE svg PUBLIC "-//W3C//DTD SVG 1.1//EN" "http://www.w3.org/Graphics/SVG/1.1/DTD/svg11.dtd">
<svg width="100%" height="100%" viewBox="0 0 713 172" version="1.1" xmlns="http://www.w3.org/2000/svg" xmlns:xlink="http://www.w3.org/1999/xlink" xml:space="preserve" xmlns:serif="http://www.serif.com/" style="fill-rule:evenodd;clip-rule:evenodd;stroke-linejoin:round;stroke-miterlimit:2;">
    <g transform="matrix(1,0,0,1,-1112.38,-5278.3)">
        <g transform="matrix(4.16667,0,0,4.16667,0,5062.5)">
            <g transform="matrix(-1,0,0,1,358.386,84.7412)">
                <path d="M0.356,-11.958C4.314,-11.958 6.615,-9.214 6.615,-5.953C6.615,-2.588 4.314,0 0.356,0C-3.604,0 -6.259,-2.588 -6.259,-5.953C-6.259,-9.214 -3.604,-11.958 0.356,-11.958" style="fill:rgb(146,121,111);fill-rule:nonzero;"/>
            </g>
        </g>
        <g transform="matrix(4.16667,0,0,4.16667,0,5062.5)">
            <g transform="matrix(1,0,0,1,325.588,82.8191)">
                <path d="M0,-8.033C0.59,-10.778 2.363,-12.228 5.2,-12.228C7.823,-12.228 10.229,-10.571 10.711,-8.034L0,-8.033ZM4.44,-18.171C4.113,-18.171 3.789,-18.163 3.469,-18.149C-4.234,-18.13 -9.907,-14.121 -12.101,-8.887C-12.416,-14.349 -14.947,-18.171 -21.428,-18.171C-25.175,-18.171 -28.867,-16.411 -30.738,-13.098C-32.682,-16.552 -36.014,-18.111 -39.88,-18.169L-40.104,-18.171L-58.617,-18.179L-58.617,-15.691L-58.616,9.265L-48.878,9.265L-48.878,-3.418C-48.878,-6.369 -48.878,-10.872 -44.543,-10.872C-40.21,-10.872 -40.21,-6.369 -40.21,-3.418L-40.21,9.265L-30.471,9.265L-30.471,-3.418C-30.471,-6.575 -30.312,-10.666 -25.815,-10.666C-21.696,-10.666 -21.803,-6.162 -21.803,-3.418L-21.803,9.265L-12.065,9.265L-12.065,1.095C-9.838,6.32 -4.155,10.095 3.536,10.093C4.06,10.128 4.593,10.146 5.135,10.146C11.396,10.146 17.55,7.298 19.101,1.035L9.738,1.035C8.668,2.795 7.17,3.467 5.083,3.467C1.07,3.467 -1.017,1.398 -1.017,-2.434L19.476,-2.434L19.476,-3.418C19.476,-12.476 13.964,-18.171 4.44,-18.171" style="fill:rgb(146,121,111);fill-rule:nonzero;"/>
            </g>
        </g>
        <g transform="matrix(4.16667,0,0,4.16667,0,5062.5)">
            <g transform="matrix(1,0,0,1,420.567,59.9695)">
                <path d="M0,24.845C-3.958,24.845 -6.261,22.257 -6.261,18.891C-6.261,15.631 -3.958,12.887 0,12.887C3.96,12.887 6.261,15.631 6.261,18.891C6.261,22.257 3.96,24.845 0,24.845M-30.957,24.907C-34.915,24.907 -37.215,22.319 -37.215,18.953C-37.215,15.693 -34.915,12.949 -30.957,12.949C-26.996,12.949 -24.696,15.693 -24.696,18.953C-24.696,22.319 -26.996,24.907 -30.957,24.907M0.899,4.707C0.626,4.707 0.356,4.71 0.085,4.72L-0.099,4.729C-0.521,4.747 -0.94,4.779 -1.355,4.821C-9.232,5.571 -15.113,9.506 -17.229,14.627L-17.239,-8.178L-26.976,-8.178L-26.96,8.149C-28.995,5.818 -32.31,4.679 -35.468,4.679C-43.601,4.679 -49.219,11.202 -49.219,18.81C-49.219,26.334 -43.622,32.847 -35.634,32.992C-35.64,33.011 -17.505,33.011 -17.505,33.011L-17.228,33.011L-17.222,32.115L-17.226,23.159C-14.879,28.813 -8.01,33.009 0.08,33.009C0.353,33.02 0.624,33.023 0.899,33.023C9.728,33.023 17.433,27.897 17.433,18.89C17.433,9.832 9.728,4.707 0.899,4.707" style="fill:rgb(146,121,111);fill-rule:nonzero;"/>
            </g>
        </g>
    </g>
</svg>
