<?xml version="1.0" encoding="UTF-8" standalone="no"?>
<!DOCTYPE svg PUBLIC "-//W3C//DTD SVG 1.1//EN" "http://www.w3.org/Graphics/SVG/1.1/DTD/svg11.dtd">
<svg width="100%" height="100%" viewBox="0 0 760 183" version="1.1" xmlns="http://www.w3.org/2000/svg" xmlns:xlink="http://www.w3.org/1999/xlink" xml:space="preserve" xmlns:serif="http://www.serif.com/" style="fill-rule:evenodd;clip-rule:evenodd;stroke-linejoin:round;stroke-miterlimit:2;">
    <g transform="matrix(1,0,0,1,-5272.56,-3912.43)">
        <g transform="matrix(4.16667,0,0,4.16667,0,0)">
            <g transform="matrix(-1,0,0,1,1362.79,974.083)">
                <path d="M0.379,-12.737C4.596,-12.737 7.046,-9.815 7.046,-6.341C7.046,-2.757 4.596,0 0.379,0C-3.839,0 -6.667,-2.757 -6.667,-6.341C-6.667,-9.815 -3.839,-12.737 0.379,-12.737" style="fill:rgb(239,239,239);fill-rule:nonzero;"/>
            </g>
        </g>
        <g transform="matrix(4.16667,0,0,4.16667,0,0)">
            <g transform="matrix(1,0,0,1,1327.85,972.034)">
                <path d="M0,-8.556C0.629,-11.479 2.518,-13.024 5.539,-13.024C8.333,-13.024 10.896,-11.259 11.409,-8.556L0,-8.556ZM4.73,-19.354C4.381,-19.354 4.036,-19.346 3.695,-19.33C-4.511,-19.31 -10.553,-15.04 -12.89,-9.465C-13.226,-15.283 -15.921,-19.354 -22.825,-19.354C-26.816,-19.354 -30.749,-17.479 -32.742,-13.951C-34.813,-17.628 -38.362,-19.29 -42.48,-19.352L-42.719,-19.354L-62.439,-19.364L-62.439,-16.712L-62.438,9.87L-52.065,9.87L-52.065,-3.639C-52.065,-6.783 -52.065,-11.579 -47.447,-11.579C-42.832,-11.579 -42.832,-6.783 -42.832,-3.639L-42.832,9.87L-32.458,9.87L-32.458,-3.639C-32.458,-7.002 -32.288,-11.36 -27.499,-11.36C-23.111,-11.36 -23.225,-6.562 -23.225,-3.639L-23.225,9.87L-12.852,9.87L-12.852,1.169C-10.48,6.733 -4.426,10.755 3.767,10.753C4.325,10.79 4.893,10.808 5.47,10.808C12.14,10.808 18.694,7.776 20.347,1.104L10.373,1.104C9.234,2.979 7.638,3.694 5.414,3.694C1.14,3.694 -1.083,1.49 -1.083,-2.591L20.746,-2.591L20.746,-3.639C20.746,-13.287 14.875,-19.354 4.73,-19.354" style="fill:rgb(239,239,239);fill-rule:nonzero;"/>
            </g>
        </g>
        <g transform="matrix(4.16667,0,0,4.16667,0,0)">
            <g transform="matrix(1,0,0,1,1429.03,947.695)">
                <path d="M0,26.465C-4.216,26.465 -6.669,23.709 -6.669,20.123C-6.669,16.651 -4.216,13.728 0,13.728C4.219,13.728 6.669,16.651 6.669,20.123C6.669,23.709 4.219,26.465 0,26.465M-32.976,26.531C-37.191,26.531 -39.643,23.775 -39.643,20.19C-39.643,16.717 -37.191,13.794 -32.976,13.794C-28.757,13.794 -26.307,16.717 -26.307,20.19C-26.307,23.775 -28.757,26.531 -32.976,26.531M0.957,5.015C0.667,5.015 0.379,5.019 0.091,5.028L-0.105,5.038C-0.556,5.058 -1.002,5.09 -1.444,5.136C-9.834,5.935 -16.099,10.126 -18.354,15.581L-18.363,-8.711L-28.735,-8.711L-28.718,8.68C-30.886,6.197 -34.417,4.985 -37.781,4.985C-46.444,4.985 -52.429,11.933 -52.429,20.037C-52.429,28.052 -46.467,34.989 -37.957,35.145C-37.964,35.164 -18.646,35.164 -18.646,35.164L-18.352,35.164L-18.346,34.208L-18.35,24.67C-15.85,30.693 -8.532,35.162 0.085,35.162C0.376,35.173 0.664,35.176 0.957,35.176C10.362,35.176 18.569,29.717 18.569,20.122C18.569,10.474 10.362,5.015 0.957,5.015" style="fill:rgb(239,239,239);fill-rule:nonzero;"/>
            </g>
        </g>
    </g>
</svg>
